# xmcd
#
# Track frame offsets: 
#        150
#        19598
#        39761
#        58540
#        70555
#        90319
#        105339
#        121759
#        143463
#        164538
#        179338
#        192708
#        212144
#        228179
#        245624
#        269453
#
# Disc length: 3859 seconds
#
# Revision: 0
# Processed by: cddbd v1.5.2PL0 Copyright (c) Steve Scherf et al.
# Submitted via: ExactAudioCopy v1.0b2
#
DISCID=cc0f1110
DTITLE=王菲 - 阿菲正传 1
DYEAR=2009
DGENRE=Pop
TTITLE0=容易受伤的女人
TTITLE1=执迷不悔 
TTITLE2=冷战
TTITLE3=我愿意
TTITLE4=梦中人
TTITLE5=知己知彼
TTITLE6=天空
TTITLE7=棋子
TTITLE8=暖昧
TTITLE9=Di-Dar
TTITLE10=浮躁
TTITLE11=你快乐(所以我快乐)
TTITLE12=半途而废
TTITLE13=当时的月亮
TTITLE14=百年孤寂
TTITLE15=给自己的情书
EXTD=
EXTT0=
EXTT1=
EXTT2=
EXTT3=
EXTT4=
EXTT5=
EXTT6=
EXTT7=
EXTT8=
EXTT9=
EXTT10=
EXTT11=
EXTT12=
EXTT13=
EXTT14=
EXTT15=
PLAYORDER=
